<svg width="64" height="64" viewBox="0 0 64 64" fill="none" xmlns="http://www.w3.org/2000/svg">
  <rect width="64" height="64" rx="14" fill="#0B142A"/>
  <rect x="10" y="12" width="44" height="40" rx="10" fill="#111D3A" stroke="#5DD8FF" stroke-opacity="0.6"/>
  <path
    d="M32 48C31.5 48 31.1 47.8 30.7 47.5L21.7 39.3C17 35.1 15 31.8 15 27.8C15 22.8 18.8 19 23.8 19C26.8 19 29.8 20.4 32 22.7C34.2 20.4 37.2 19 40.2 19C45.2 19 49 22.8 49 27.8C49 31.8 47 35.1 42.3 39.3L33.3 47.5C32.9 47.8 32.5 48 32 48Z"
    fill="#5DD8FF"
    fill-opacity="0.14"
    stroke="#8FE7FF"
    stroke-width="1.6"
  />
  <path
    d="M19 31.5H26L29 26L33 37L36 31.5H45"
    stroke="#A5EEFF"
    stroke-width="2.4"
    stroke-linecap="round"
    stroke-linejoin="round"
  />
  <circle cx="19" cy="31.5" r="2" fill="#5DD8FF"/>
  <circle cx="45" cy="31.5" r="2" fill="#5DD8FF"/>
</svg>
